<svg width="24" height="24" viewBox="0 0 24 24" fill="none" xmlns="http://www.w3.org/2000/svg">
<path d="M21.44 11.05L12.25 20.24C11.1242 21.3658 9.59722 21.9983 8.005 21.9983C6.41278 21.9983 4.88583 21.3658 3.76 20.24C2.63417 19.1142 2.00166 17.5872 2.00166 15.995C2.00166 14.4028 2.63417 12.8758 3.76 11.75L12.95 2.56C13.7006 1.80944 14.7186 1.38785 15.78 1.38785C16.8414 1.38785 17.8594 1.80944 18.61 2.56C19.3606 3.31056 19.7822 4.32861 19.7822 5.39C19.7822 6.45139 19.3606 7.46944 18.61 8.22L9.41 17.41C9.03494 17.7851 8.52433 17.9961 7.99 17.9961C7.45567 17.9961 6.94506 17.7851 6.57 17.41C6.19494 17.0349 5.98389 16.5243 5.98389 15.99C5.98389 15.4557 6.19494 14.9451 6.57 14.57L15.07 6.07" stroke="currentColor" stroke-width="2" stroke-linecap="round" stroke-linejoin="round"/>
</svg>